#Comment line ignore any data following # character 
#Hierarchical Translation and Rotation (.htr) file 
[Header]	
#Header keywords are followed by a single value 
FileType HTR		#Single word string
DataType HTRS		#Translation followed by rotation and scale data
FileVersion 1		#integer
NumSegments 84		#integer
NumFrames 2		#integer
DataFrameRate 30		#integer, data frame rate in this file
EulerRotationOrder ZYX
CalibrationUnits mm
RotationUnits Degrees
GlobalAxisofGravity Y
BoneLengthAxis Y
ScaleFactor 1.00
[SegmentNames&Hierarchy]
#CHILD	PARENT
MASTER GLOBAL
root MASTER
chest root
L_mid_tent01 root
R_mid_tent01 root
spine01 root
Bip01_Neck chest
L_humerus chest
R_humerus chest
weapon_bone chest
Bip01_Head Bip01_Neck
eye_left_bone Bip01_Head
eye_right_bone Bip01_Head
L_forearm L_humerus
L_front_hand L_forearm
L_weapon_bone L_forearm
L_front_hand01_01 L_front_hand
L_front_hand02_01 L_front_hand
L_front_hand03_01 L_front_hand
L_front_hand01_02 L_front_hand01_01
L_front_hand02_02 L_front_hand02_01
L_front_hand03_02 L_front_hand03_01
R_forearm R_humerus
R_front_hand R_forearm
R_weapon_bone R_forearm
R_front_hand01_01 R_front_hand
R_front_hand02_01 R_front_hand
R_front_hand03_01 R_front_hand
R_front_hand01_02 R_front_hand01_01
R_front_hand02_02 R_front_hand02_01
R_front_hand03_02 R_front_hand03_01
null_rope01_connect L_mid_tent01
Rope1_Seg01 null_rope01_connect
Rope1_Seg02 Rope1_Seg01
Rope1_Seg03 Rope1_Seg02
Rope1_Seg04 Rope1_Seg03
Rope1_Seg05 Rope1_Seg04
Rope1_Seg06 Rope1_Seg05
Rope1_Seg07 Rope1_Seg06
Rope1_Seg09 Rope1_Seg07
L_mid_hand01 Rope1_Seg09
L_mid_hand02 Rope1_Seg09
L_mid_hand03 Rope1_Seg09
null_rope02_connect R_mid_tent01
Rope2_Seg01 null_rope02_connect
Rope2_Seg02 Rope2_Seg01
Rope2_Seg03 Rope2_Seg02
Rope2_Seg04 Rope2_Seg03
Rope2_Seg05 Rope2_Seg04
Rope2_Seg06 Rope2_Seg05
Rope2_Seg07 Rope2_Seg06
Rope2_Seg09 Rope2_Seg07
R_mid_hand01 Rope2_Seg09
R_mid_hand02 Rope2_Seg09
R_mid_hand03 Rope2_Seg09
spine02 spine01
spine03 spine02
pelvis spine03
null_rope03_connect pelvis
null_rope04_connect pelvis
Rope3_Seg01 null_rope03_connect
Rope3_Seg02 Rope3_Seg01
Rope3_Seg03 Rope3_Seg02
Rope3_Seg04 Rope3_Seg03
Rope3_Seg05 Rope3_Seg04
Rope3_Seg06 Rope3_Seg05
Rope3_Seg07 Rope3_Seg06
Rope3_Seg08 Rope3_Seg07
Rope3_Seg09 Rope3_Seg08
R_rear_hand01 Rope3_Seg09
R_rear_hand02 Rope3_Seg09
R_rear_hand03 Rope3_Seg09
Rope4_Seg01 null_rope04_connect
Rope4_Seg02 Rope4_Seg01
Rope4_Seg03 Rope4_Seg02
Rope4_Seg04 Rope4_Seg03
Rope4_Seg05 Rope4_Seg04
Rope4_Seg06 Rope4_Seg05
Rope4_Seg07 Rope4_Seg06
Rope4_Seg08 Rope4_Seg07
Rope4_Seg09 Rope4_Seg08
L_rear_hand01 Rope4_Seg09
L_rear_hand02 Rope4_Seg09
L_rear_hand03 Rope4_Seg09
[BasePosition]
#SegmentName Tx, Ty, Tz, Rx, Ry, Rz, BoneLength
MASTER 0.000000 0.000000 0.000000 -90.000000 0.000000 0.000000 10.000000 
root 0.000000 0.000000 0.000000 0.000000 0.000000 0.000000 10.000000 
chest 0.000000 0.000000 0.000000 0.000000 0.000000 0.000000 10.000000 
L_mid_tent01 0.000000 0.000000 0.000000 0.000000 0.000000 0.000000 10.000000 
R_mid_tent01 0.000000 0.000000 0.000000 0.000000 0.000000 0.000000 10.000000 
spine01 0.000000 0.000000 0.000000 0.000000 0.000000 0.000000 10.000000 
Bip01_Neck 0.000000 0.000000 0.000000 0.000000 0.000000 0.000000 10.000000 
L_humerus 0.000000 0.000000 0.000000 0.000000 0.000000 0.000000 10.000000 
R_humerus 0.000000 0.000000 0.000000 0.000000 0.000000 0.000000 10.000000 
weapon_bone 0.000000 0.000000 0.000000 0.000000 0.000000 0.000000 10.000000 
Bip01_Head 0.000000 0.000000 0.000000 0.000000 0.000000 0.000000 10.000000 
eye_left_bone 0.000000 0.000000 0.000000 0.000000 0.000000 0.000000 10.000000 
eye_right_bone 0.000000 0.000000 0.000000 0.000000 0.000000 0.000000 10.000000 
L_forearm 0.000000 0.000000 0.000000 0.000000 0.000000 0.000000 10.000000 
L_front_hand 0.000000 0.000000 0.000000 0.000000 0.000000 0.000000 10.000000 
L_weapon_bone 0.000000 0.000000 0.000000 0.000000 0.000000 0.000000 10.000000 
L_front_hand01_01 0.000000 0.000000 0.000000 0.000000 0.000000 0.000000 10.000000 
L_front_hand02_01 0.000000 0.000000 0.000000 0.000000 0.000000 0.000000 10.000000 
L_front_hand03_01 0.000000 0.000000 0.000000 0.000000 0.000000 0.000000 10.000000 
L_front_hand01_02 0.000000 0.000000 0.000000 0.000000 0.000000 0.000000 10.000000 
L_front_hand02_02 0.000000 0.000000 0.000000 0.000000 0.000000 0.000000 10.000000 
L_front_hand03_02 0.000000 0.000000 0.000000 0.000000 0.000000 0.000000 10.000000 
R_forearm 0.000000 0.000000 0.000000 0.000000 0.000000 0.000000 10.000000 
R_front_hand 0.000000 0.000000 0.000000 0.000000 0.000000 0.000000 10.000000 
R_weapon_bone 0.000000 0.000000 0.000000 0.000000 0.000000 0.000000 10.000000 
R_front_hand01_01 0.000000 0.000000 0.000000 0.000000 0.000000 0.000000 10.000000 
R_front_hand02_01 0.000000 0.000000 0.000000 0.000000 0.000000 0.000000 10.000000 
R_front_hand03_01 0.000000 0.000000 0.000000 0.000000 0.000000 0.000000 10.000000 
R_front_hand01_02 0.000000 0.000000 0.000000 0.000000 0.000000 0.000000 10.000000 
R_front_hand02_02 0.000000 0.000000 0.000000 0.000000 0.000000 0.000000 10.000000 
R_front_hand03_02 0.000000 0.000000 0.000000 0.000000 0.000000 0.000000 10.000000 
null_rope01_connect 0.000000 0.000000 0.000000 0.000000 0.000000 0.000000 10.000000 
Rope1_Seg01 0.000000 0.000000 0.000000 0.000000 0.000000 0.000000 10.000000 
Rope1_Seg02 0.000000 0.000000 0.000000 0.000000 0.000000 0.000000 10.000000 
Rope1_Seg03 0.000000 0.000000 0.000000 0.000000 0.000000 0.000000 10.000000 
Rope1_Seg04 0.000000 0.000000 0.000000 0.000000 0.000000 0.000000 10.000000 
Rope1_Seg05 0.000000 0.000000 0.000000 0.000000 0.000000 0.000000 10.000000 
Rope1_Seg06 0.000000 0.000000 0.000000 0.000000 0.000000 0.000000 10.000000 
Rope1_Seg07 0.000000 0.000000 0.000000 0.000000 0.000000 0.000000 10.000000 
Rope1_Seg09 0.000000 0.000000 0.000000 0.000000 0.000000 0.000000 10.000000 
L_mid_hand01 0.000000 0.000000 0.000000 0.000000 0.000000 0.000000 10.000000 
L_mid_hand02 0.000000 0.000000 0.000000 0.000000 0.000000 0.000000 10.000000 
L_mid_hand03 0.000000 0.000000 0.000000 0.000000 0.000000 0.000000 10.000000 
null_rope02_connect 0.000000 0.000000 0.000000 0.000000 0.000000 0.000000 10.000000 
Rope2_Seg01 0.000000 0.000000 0.000000 0.000000 0.000000 0.000000 10.000000 
Rope2_Seg02 0.000000 0.000000 0.000000 0.000000 0.000000 0.000000 10.000000 
Rope2_Seg03 0.000000 0.000000 0.000000 0.000000 0.000000 0.000000 10.000000 
Rope2_Seg04 0.000000 0.000000 0.000000 0.000000 0.000000 0.000000 10.000000 
Rope2_Seg05 0.000000 0.000000 0.000000 0.000000 0.000000 0.000000 10.000000 
Rope2_Seg06 0.000000 0.000000 0.000000 0.000000 0.000000 0.000000 10.000000 
Rope2_Seg07 0.000000 0.000000 0.000000 0.000000 0.000000 0.000000 10.000000 
Rope2_Seg09 0.000000 0.000000 0.000000 0.000000 0.000000 0.000000 10.000000 
R_mid_hand01 0.000000 0.000000 0.000000 0.000000 0.000000 0.000000 10.000000 
R_mid_hand02 0.000000 0.000000 0.000000 0.000000 0.000000 0.000000 10.000000 
R_mid_hand03 0.000000 0.000000 0.000000 0.000000 0.000000 0.000000 10.000000 
spine02 0.000000 0.000000 0.000000 0.000000 0.000000 0.000000 10.000000 
spine03 0.000000 0.000000 0.000000 0.000000 0.000000 0.000000 10.000000 
pelvis 0.000000 0.000000 0.000000 0.000000 0.000000 0.000000 10.000000 
null_rope03_connect 0.000000 0.000000 0.000000 0.000000 0.000000 0.000000 10.000000 
null_rope04_connect 0.000000 0.000000 0.000000 0.000000 0.000000 0.000000 10.000000 
Rope3_Seg01 0.000000 0.000000 0.000000 0.000000 0.000000 0.000000 10.000000 
Rope3_Seg02 0.000000 0.000000 0.000000 0.000000 0.000000 0.000000 10.000000 
Rope3_Seg03 0.000000 0.000000 0.000000 0.000000 0.000000 0.000000 10.000000 
Rope3_Seg04 0.000000 0.000000 0.000000 0.000000 0.000000 0.000000 10.000000 
Rope3_Seg05 0.000000 0.000000 0.000000 0.000000 0.000000 0.000000 10.000000 
Rope3_Seg06 0.000000 0.000000 0.000000 0.000000 0.000000 0.000000 10.000000 
Rope3_Seg07 0.000000 0.000000 0.000000 0.000000 0.000000 0.000000 10.000000 
Rope3_Seg08 0.000000 0.000000 0.000000 0.000000 0.000000 0.000000 10.000000 
Rope3_Seg09 0.000000 0.000000 0.000000 0.000000 0.000000 0.000000 10.000000 
R_rear_hand01 0.000000 0.000000 0.000000 0.000000 0.000000 0.000000 10.000000 
R_rear_hand02 0.000000 0.000000 0.000000 0.000000 0.000000 0.000000 10.000000 
R_rear_hand03 0.000000 0.000000 0.000000 0.000000 0.000000 0.000000 10.000000 
Rope4_Seg01 0.000000 0.000000 0.000000 0.000000 0.000000 0.000000 10.000000 
Rope4_Seg02 0.000000 0.000000 0.000000 0.000000 0.000000 0.000000 10.000000 
Rope4_Seg03 0.000000 0.000000 0.000000 0.000000 0.000000 0.000000 10.000000 
Rope4_Seg04 0.000000 0.000000 0.000000 0.000000 0.000000 0.000000 10.000000 
Rope4_Seg05 0.000000 0.000000 0.000000 0.000000 0.000000 0.000000 10.000000 
Rope4_Seg06 0.000000 0.000000 0.000000 0.000000 0.000000 0.000000 10.000000 
Rope4_Seg07 0.000000 0.000000 0.000000 0.000000 0.000000 0.000000 10.000000 
Rope4_Seg08 0.000000 0.000000 0.000000 0.000000 0.000000 0.000000 10.000000 
Rope4_Seg09 0.000000 0.000000 0.000000 0.000000 0.000000 0.000000 10.000000 
L_rear_hand01 0.000000 0.000000 0.000000 0.000000 0.000000 0.000000 10.000000 
L_rear_hand02 0.000000 0.000000 0.000000 0.000000 0.000000 0.000000 10.000000 
L_rear_hand03 0.000000 0.000000 0.000000 0.000000 0.000000 0.000000 10.000000 
#Beginning of Data. Separated by tabs
#Fr	Tx	Ty	Tz	Rx	Ry	Rz	SF
[MASTER]
58 -353.053009 8166.776855 1541.523193 0.001660 0.001660 0.001660 8318.485352
59 -519.856079 8783.126953 1356.418457 0.001660 0.001660 0.001660 8902.440430
[root]
58 124.142799 -248.836182 598.074585 -59.739506 -17.458162 -46.260509 659.563599
59 11.081875 -248.837891 598.074890 -72.924065 -15.537385 -50.617161 647.870911
[chest]
58 -84.512650 -34.090519 0.000000 12.627697 -9.276851 165.178436 91.129311
59 -84.512650 -34.090519 0.000000 11.944128 -6.181585 164.625000 91.129311
[L_mid_tent01]
58 27.299578 22.179470 -249.918686 -15.904608 8.502465 20.425842 252.381744
59 27.299587 22.179474 -249.918686 -11.168690 11.293545 17.854929 252.381744
[R_mid_tent01]
58 23.228794 24.509907 226.238495 153.017029 -2.381715 7.898299 228.744751
59 23.228794 24.509907 226.238495 153.607788 0.935484 20.530134 228.744751
[spine01]
58 -0.361383 -0.195265 0.000000 -0.000001 -0.000007 22.052340 0.410763
59 -0.361383 -0.195265 0.000000 -0.000001 -0.000007 22.052340 0.410763
[Bip01_Neck]
58 165.484543 71.581718 0.000119 176.643677 -1.657967 43.431911 180.302734
59 165.484543 71.581718 0.000119 176.643677 -1.657967 43.431911 180.302734
[L_humerus]
58 -13.983130 -135.272980 -120.471481 172.083572 0.708445 -94.955666 181.680161
59 -13.983130 -135.272980 -120.471481 172.003342 2.043440 -95.137398 181.680161
[R_humerus]
58 -13.983309 -135.273102 125.287651 -177.014343 2.678822 -85.399712 184.909012
59 -13.983309 -135.273102 125.287651 -176.996460 0.815221 -85.530174 184.909012
[weapon_bone]
58 235.964890 -300.705902 0.000000 0.000000 -89.951546 -128.212341 382.234833
59 235.964890 -300.705902 0.000000 0.000000 -89.951546 -128.212341 382.234833
[Bip01_Head]
58 213.432617 185.748596 11.352536 14.512345 -1.253929 -47.895649 283.169373
59 213.433609 185.745621 11.391156 14.884425 -1.007144 -47.680523 283.169739
[eye_left_bone]
58 -24.626970 125.451866 -64.772606 0.000000 -90.000000 -99.840431 143.318359
59 -24.626970 125.451866 -64.772606 0.000000 -90.000000 -99.840431 143.318359
[eye_right_bone]
58 -24.626970 125.451866 64.327362 0.000000 -89.965736 80.156380 143.117676
59 -24.626970 125.451866 64.327362 0.000000 -89.965736 80.156380 143.117676
[L_forearm]
58 322.776093 0.000000 -0.000119 0.000413 -0.002311 -110.290527 322.776093
59 322.776093 0.000000 -0.000119 0.000412 -0.002311 -110.240707 322.776093
[L_front_hand]
58 241.149185 -0.042021 -3.300071 -178.667953 -1.835447 -27.422350 241.171753
59 241.149185 -0.042021 -3.300071 -178.667953 -1.835447 -27.422350 241.171753
[L_weapon_bone]
58 156.183838 0.000000 0.000000 0.000014 0.000007 0.000001 156.183838
59 156.183838 0.000000 0.000000 0.000014 0.000007 0.000001 156.183838
[L_front_hand01_01]
58 86.095154 20.947098 -0.655860 -0.366594 -0.477154 75.385574 88.609184
59 86.095154 20.947098 -0.655860 -0.366594 -0.477154 75.385574 88.609184
[L_front_hand02_01]
58 86.935165 -11.437475 24.513514 154.399796 -59.883835 -61.369587 91.046425
59 86.935165 -11.437475 24.513514 154.399796 -59.883835 -61.369587 91.046425
[L_front_hand03_01]
58 86.637497 -14.123976 -20.424902 -153.913849 58.118122 -62.702866 90.126129
59 86.637497 -14.123976 -20.424902 -153.913849 58.118122 -62.702866 90.126129
[L_front_hand01_02]
58 71.020905 -0.000179 0.000030 0.000334 -0.002323 -106.379684 71.020905
59 71.020905 -0.000179 0.000030 0.000334 -0.002323 -106.379684 71.020905
[L_front_hand02_02]
58 71.020927 -0.000119 0.000060 0.000334 -0.002323 -106.379684 71.020927
59 71.020927 -0.000119 0.000060 0.000334 -0.002323 -106.379684 71.020927
[L_front_hand03_02]
58 71.020905 -0.000060 0.000060 0.000334 -0.002323 -106.379684 71.020905
59 71.020905 -0.000060 0.000060 0.000334 -0.002323 -106.379684 71.020905
[R_forearm]
58 322.776428 -0.000060 0.000030 0.201598 0.066702 -108.939667 322.776428
59 322.776428 -0.000060 0.000030 0.201627 0.066616 -108.890381 322.776428
[R_front_hand]
58 238.847015 -0.006795 2.210259 -2.635298 -10.645461 -26.312506 238.857239
59 238.847015 -0.006795 2.210259 -2.635298 -10.645461 -26.312506 238.857239
[R_weapon_bone]
58 155.664093 0.002503 -0.000030 0.003487 0.001180 -90.988930 155.664078
59 155.664093 0.002503 -0.000030 0.003487 0.001180 -90.988930 155.664078
[R_front_hand01_01]
58 87.624611 14.231146 22.918642 -154.633499 -59.950619 61.746044 91.683487
59 87.624611 14.231146 22.918642 -154.633499 -59.950619 61.746044 91.683487
[R_front_hand02_01]
58 89.356956 14.367283 -19.491137 154.602661 58.302849 63.744389 92.579636
59 89.356956 14.367283 -19.491137 154.602661 58.302849 63.744389 92.579636
[R_front_hand03_01]
58 87.286232 -22.307278 -0.143439 0.162155 -0.423168 -75.767921 90.091743
59 87.286232 -22.307278 -0.143439 0.162155 -0.423168 -75.767921 90.091743
[R_front_hand01_02]
58 71.020905 0.000060 0.000119 0.002323 -0.000334 106.381714 71.020905
59 71.020905 0.000060 0.000119 0.002323 -0.000334 106.381714 71.020905
[R_front_hand02_02]
58 71.020844 -0.000030 -0.000119 0.002323 -0.000334 106.381714 71.020836
59 71.020844 -0.000030 -0.000119 0.002323 -0.000334 106.381714 71.020836
[R_front_hand03_02]
58 71.020905 0.000000 0.000030 0.002323 -0.000334 106.381714 71.020905
59 71.020905 0.000000 0.000030 0.002323 -0.000334 106.381714 71.020905
[null_rope01_connect]
58 328.732483 0.000000 -0.000238 72.743256 -43.270943 7.472447 328.732483
59 328.732483 0.000000 -0.000238 81.561325 -56.411743 2.311718 328.732483
[Rope1_Seg01]
58 0.000038 -0.000850 0.000153 78.832726 68.727783 -86.336655 0.000865
59 0.000038 -0.000865 0.000153 98.178764 38.657749 -63.661423 0.000879
[Rope1_Seg02]
58 139.999863 -0.000179 0.000000 -0.870201 7.696479 -3.229739 139.999863
59 139.999863 -0.000179 0.000000 1.303118 14.172625 3.169278 139.999863
[Rope1_Seg03]
58 139.999924 0.000060 -0.000060 -2.979277 12.983356 -5.477684 139.999924
59 139.999924 0.000060 -0.000060 -1.048684 20.046347 2.754658 139.999924
[Rope1_Seg04]
58 139.999924 -0.000060 -0.000119 -8.697581 19.371132 -9.769086 139.999924
59 139.999924 -0.000060 -0.000119 -4.277125 21.768593 7.885351 139.999924
[Rope1_Seg05]
58 139.999832 0.000119 -0.000060 -38.804928 30.538021 -1.753303 139.999832
59 139.999832 0.000119 -0.000060 -2.766491 7.095810 5.780794 139.999832
[Rope1_Seg06]
58 139.999954 0.000119 -0.000060 -28.559093 14.419115 13.550066 139.999954
59 139.999954 0.000119 -0.000060 -1.381452 3.435144 2.420039 139.999954
[Rope1_Seg07]
58 139.999985 0.000060 0.000000 -9.402937 3.182541 8.107327 139.999985
59 139.999985 0.000060 0.000000 -0.838739 1.986086 1.471291 139.999985
[Rope1_Seg09]
58 121.602913 0.000119 -0.000089 -89.793175 -1.359789 0.847147 121.602913
59 121.602913 0.000119 -0.000089 -89.793175 -1.359789 0.847147 121.602913
[L_mid_hand01]
58 103.859421 1.038730 8.195221 130.544373 -67.584534 -38.866943 104.187431
59 103.859421 1.038730 8.195221 130.544373 -67.584534 -38.866943 104.187431
[L_mid_hand02]
58 105.572853 -4.139662 -10.864139 -168.923172 43.409309 -73.498886 106.211075
59 105.572853 -4.139662 -10.864139 -168.923172 43.409309 -73.498886 106.211075
[L_mid_hand03]
58 104.641464 17.579376 -3.913581 -6.012627 17.808174 74.893669 106.179977
59 104.641464 17.579376 -3.913581 -6.012627 17.808174 74.893669 106.179977
[null_rope02_connect]
58 328.732849 0.000179 -0.000119 -92.395996 39.691853 -13.291310 328.732849
59 328.732849 0.000179 -0.000119 -76.105766 43.964775 14.215138 328.732849
[Rope2_Seg01]
58 0.000069 -0.000802 0.000000 91.161621 -8.575301 69.774879 0.000805
59 0.000069 -0.000819 0.000000 99.644829 -14.997532 28.741741 0.000821
[Rope2_Seg02]
58 139.999741 -0.000060 -0.000119 0.839908 -5.370794 -0.770517 139.999756
59 139.999741 -0.000060 -0.000119 -4.869740 -15.808621 -2.805583 139.999756
[Rope2_Seg03]
58 140.000107 0.000030 0.000000 0.841510 -8.450601 -1.096997 140.000107
59 140.000107 0.000030 0.000000 -10.970524 -17.043087 -5.839632 140.000107
[Rope2_Seg04]
58 139.999802 0.000000 -0.000060 0.289200 -15.093704 -2.546209 139.999802
59 139.999802 0.000000 -0.000060 -14.750401 -12.254826 -7.512958 139.999802
[Rope2_Seg05]
58 139.999985 -0.000060 0.000119 -3.685953 -24.899321 -3.543101 139.999985
59 139.999985 -0.000060 0.000119 -5.230874 -7.281750 -0.116781 139.999985
[Rope2_Seg06]
58 139.999893 -0.000030 -0.000119 -5.615808 -18.850777 1.662352 139.999893
59 139.999893 -0.000030 -0.000119 -2.146391 -8.087336 2.811575 139.999893
[Rope2_Seg07]
58 139.999893 0.000060 -0.000060 -6.483359 -11.587872 0.042953 139.999893
59 139.999893 0.000060 -0.000060 -11.248066 -7.225668 -0.117412 139.999893
[Rope2_Seg09]
58 121.338966 0.000089 -0.000060 33.793236 -1.359788 -0.847141 121.338966
59 121.338966 0.000089 -0.000060 33.793236 -1.359788 -0.847141 121.338966
[R_mid_hand01]
58 104.680779 11.144459 -10.335981 -16.212063 45.237247 70.462852 105.778534
59 104.680779 11.144459 -10.335981 -16.212063 45.237247 70.462852 105.778534
[R_mid_hand02]
58 104.070427 2.443552 8.231699 49.067368 -67.749771 39.286453 104.424065
59 104.070427 2.443552 8.231699 49.067368 -67.749771 39.286453 104.424065
[R_mid_hand03]
58 106.028137 -11.221827 -5.996406 -177.101105 15.551026 -76.585571 106.788818
59 106.028137 -11.221827 -5.996406 -177.101105 15.551026 -76.585571 106.788818
[spine02]
58 129.756927 0.001550 0.000119 0.445995 -4.035452 -14.167065 129.756927
59 129.756927 0.001550 0.000119 0.441009 -4.036037 -14.095222 129.756927
[spine03]
58 78.613525 0.081739 -4.898885 1.948787 3.804739 17.256163 78.766060
59 78.613518 0.081741 -4.898883 1.945624 3.806197 17.212410 78.766052
[pelvis]
58 169.435242 0.051022 0.000000 0.019518 -0.190233 -10.721425 169.435257
59 169.435242 0.051022 0.000000 0.020070 -0.190176 -11.054292 169.435257
[null_rope03_connect]
58 -1.257226 -2.466202 137.391083 54.557678 -30.649176 25.687914 137.418976
59 -1.257226 -2.466202 137.391083 65.524582 -43.025871 19.425838 137.418976
[null_rope04_connect]
58 -1.259640 -2.480268 -137.844437 54.557678 -30.649176 25.687914 137.872513
59 -1.259640 -2.480268 -137.844437 65.524582 -43.025871 19.425838 137.872513
[Rope3_Seg01]
58 -0.000032 0.000000 -0.000105 -10.879641 -45.292107 -33.789665 0.000109
59 -0.000031 0.000000 -0.000107 -4.916192 -39.130501 -39.465046 0.000111
[Rope3_Seg02]
58 139.999924 -0.000119 0.000060 4.828914 16.869331 24.590111 139.999924
59 139.999924 -0.000119 0.000060 8.255741 20.145472 13.346385 139.999924
[Rope3_Seg03]
58 139.999924 -0.000119 0.000119 15.311434 16.514311 12.348101 139.999924
59 139.999924 -0.000119 0.000119 13.187069 16.645065 4.042361 139.999924
[Rope3_Seg04]
58 139.999924 0.000119 0.000000 -20.925453 -0.183011 11.991746 139.999924
59 139.999924 0.000119 0.000000 0.253674 3.337480 4.923882 139.999924
[Rope3_Seg05]
58 139.999924 -0.000238 0.000060 -37.156345 -10.397732 8.009650 139.999924
59 139.999924 -0.000238 0.000060 -14.238603 -4.702093 8.561865 139.999924
[Rope3_Seg06]
58 139.999893 -0.000119 -0.000060 -11.081004 -5.359800 0.944734 139.999893
59 139.999893 -0.000119 -0.000060 -9.002490 -3.477840 4.495174 139.999893
[Rope3_Seg07]
58 139.999771 0.000060 -0.000119 -5.421995 -3.324613 0.134349 139.999771
59 139.999771 0.000060 -0.000119 -5.308478 -2.130271 2.621068 139.999771
[Rope3_Seg08]
58 139.999985 -0.000060 0.000000 -2.647894 -2.039140 -0.109546 139.999985
59 139.999985 -0.000060 0.000000 -3.378395 -1.530866 1.560987 139.999985
[Rope3_Seg09]
58 90.185997 -0.000179 -0.000060 89.793228 -1.359877 -0.847183 90.185997
59 90.185997 -0.000179 -0.000060 89.793228 -1.359877 -0.847183 90.185997
[R_rear_hand01]
58 103.366196 -6.073594 -10.757982 -177.714203 24.565960 -73.910950 104.101845
59 103.366196 -6.073594 -10.757982 -177.714203 24.565960 -73.910950 104.101845
[R_rear_hand02]
58 100.509819 12.039542 -7.992327 -12.874829 36.868488 72.167213 101.543350
59 100.509819 12.039542 -7.992327 -12.874829 36.868488 72.167213 101.543350
[R_rear_hand03]
58 101.539970 5.215704 5.435467 71.484581 -71.816628 21.513813 101.819031
59 101.539970 5.215704 5.435467 71.484581 -71.816628 21.513813 101.819031
[Rope4_Seg01]
58 -0.000004 -0.000850 -0.000153 -86.734161 18.942322 -69.641464 0.000864
59 -0.000004 -0.000865 -0.000153 -87.826080 8.511447 -61.222004 0.000878
[Rope4_Seg02]
58 139.999985 0.000060 0.000119 3.661649 -9.877147 3.574892 139.999985
59 139.999985 0.000060 0.000119 0.392229 -7.542758 -3.365145 139.999985
[Rope4_Seg03]
58 139.999924 0.000000 -0.000238 8.083266 -13.978945 6.396855 139.999924
59 139.999924 0.000000 -0.000238 0.723930 -10.010876 -4.441416 139.999924
[Rope4_Seg04]
58 139.999985 0.000000 0.000119 17.607042 -17.350172 12.522754 139.999985
59 139.999985 0.000000 0.000119 3.187617 -17.036804 -7.373330 139.999985
[Rope4_Seg05]
58 139.999802 -0.000060 -0.000119 13.705179 -9.045589 8.823184 139.999802
59 139.999802 -0.000060 -0.000119 1.110564 -6.796259 -2.977626 139.999802
[Rope4_Seg06]
58 139.999924 0.000000 0.000060 5.997346 -3.867654 3.293178 139.999924
59 139.999924 0.000000 0.000060 -3.455534 4.894552 1.240701 139.999924
[Rope4_Seg07]
58 139.999802 0.000000 0.000000 6.189057 -2.350679 3.997231 139.999802
59 139.999802 0.000000 0.000000 -0.828852 0.694277 0.036300 139.999802
[Rope4_Seg08]
58 139.999924 0.000000 0.000119 2.329860 -1.174750 2.614795 139.999924
59 139.999924 0.000000 0.000119 -1.991582 0.193226 -0.075831 139.999924
[Rope4_Seg09]
58 90.185791 0.000060 0.000060 -135.617828 2.228885 0.850567 90.185791
59 90.185791 0.000060 0.000060 -135.617828 2.228885 0.850567 90.185791
[L_rear_hand01]
58 101.696655 -8.392275 -7.654577 -12.874829 -36.868488 107.832764 102.329041
59 101.696655 -8.392275 -7.654577 -12.874829 -36.868488 107.832764 102.329041
[L_rear_hand02]
58 102.726799 -1.568258 5.773216 71.484581 71.816628 158.486160 102.900848
59 102.726799 -1.568258 5.773216 71.484581 71.816628 158.486160 102.900848
[L_rear_hand03]
58 104.552910 9.721220 -10.420293 -177.714203 -24.565960 -106.089035 105.519653
59 104.552910 9.721220 -10.420293 -177.714203 -24.565960 -106.089035 105.519653
